<?xml version="1.0" standalone="no"?>
<!DOCTYPE svg PUBLIC "-//W3C//DTD SVG 20010904//EN"
 "http://www.w3.org/TR/2001/REC-SVG-20010904/DTD/svg10.dtd">
<svg version="1.0" xmlns="http://www.w3.org/2000/svg"
 width="180.000000pt" height="180.000000pt" viewBox="0 0 180.000000 180.000000"
 preserveAspectRatio="xMidYMid meet">
<g transform="translate(0.000000,180.000000) scale(0.100000,-0.100000)"
fill="#000000" stroke="none">
<path d="M856 1779 c-15 -12 -52 -53 -84 -93 -31 -39 -79 -93 -106 -121 -45
-44 -50 -54 -52 -97 -2 -36 2 -51 14 -58 14 -8 7 -19 -49 -75 -71 -70 -79 -98
-32 -110 l24 -6 -29 -34 c-19 -21 -29 -41 -26 -52 4 -13 -8 -30 -35 -55 -23
-20 -45 -48 -51 -62 -8 -21 -5 -28 17 -46 14 -11 33 -20 42 -20 10 0 3 -12
-22 -36 -35 -35 -41 -45 -38 -70 1 -6 -27 -38 -62 -71 -78 -73 -89 -103 -51
-138 15 -14 38 -25 50 -25 13 0 24 -3 24 -6 0 -7 -61 -71 -148 -157 -97 -95
-110 -133 -58 -172 24 -17 42 -20 129 -20 56 0 129 4 162 9 264 36 244 35 239
12 -26 -133 -10 -209 55 -248 31 -19 50 -23 132 -23 86 0 99 3 132 25 66 45
73 74 54 245 -1 11 3 19 8 18 6 0 33 -4 60 -7 74 -9 133 -16 200 -26 91 -12
214 -9 247 7 33 17 42 30 44 62 1 24 -27 56 -198 232 -21 21 -38 40 -38 42 0
3 13 7 28 10 16 3 39 14 52 25 34 28 21 61 -55 134 -36 34 -64 67 -61 74 5 14
-20 52 -52 78 l-23 18 33 17 c50 25 49 56 -6 111 -30 30 -45 54 -46 71 0 14
-11 36 -25 49 l-25 23 23 11 c41 21 32 48 -35 115 -55 54 -61 63 -45 72 19 11
23 49 5 49 -9 0 -9 3 0 12 20 20 14 35 -32 80 -24 24 -78 85 -120 136 -67 81
-105 112 -135 112 -5 0 -20 -9 -35 -21z"/>
</g>
</svg>
